<svg width="80" height="80" viewBox="0 0 80 80" fill="none" xmlns="http://www.w3.org/2000/svg">
<path opacity="0.4" d="M73.3346 53.134C73.3346 62.434 65.868 69.9673 56.568 70.0007H56.5346H23.5013C14.2346 70.0007 6.66797 62.5007 6.66797 53.2007V53.1673C6.66797 53.1673 6.68797 38.414 6.71464 30.994C6.71797 29.6007 8.31797 28.8207 9.40797 29.6873C17.328 35.9707 31.4913 47.4273 31.668 47.5773C34.0346 49.474 37.0346 50.544 40.1013 50.544C43.168 50.544 46.168 49.474 48.5346 47.5407C48.7113 47.424 62.558 36.3107 70.598 29.924C71.6913 29.054 73.298 29.834 73.3013 31.224C73.3346 38.5873 73.3346 53.134 73.3346 53.134" fill="#603F8B"/>
<path d="M71.5908 18.912C68.7042 13.472 63.0242 9.99866 56.7708 9.99866H23.5042C17.2508 9.99866 11.5708 13.472 8.68417 18.912C8.0375 20.1287 8.34417 21.6453 9.42084 22.5053L34.1708 42.302C35.9042 43.702 38.0042 44.3987 40.1042 44.3987C40.1175 44.3987 40.1275 44.3987 40.1375 44.3987C40.1475 44.3987 40.1608 44.3987 40.1708 44.3987C42.2708 44.3987 44.3708 43.702 46.1042 42.302L70.8542 22.5053C71.9308 21.6453 72.2375 20.1287 71.5908 18.912" fill="#603F8B"/>
</svg>
